<?xml version="1.0" standalone="no"?>
<!DOCTYPE svg PUBLIC "-//W3C//DTD SVG 20010904//EN"
 "http://www.w3.org/TR/2001/REC-SVG-20010904/DTD/svg10.dtd">
<svg version="1.0" xmlns="http://www.w3.org/2000/svg"
 width="296.000000pt" height="264.000000pt" viewBox="0 0 296.000000 264.000000"
 preserveAspectRatio="xMidYMid meet">

<g transform="translate(0.000000,264.000000) scale(0.100000,-0.100000)"
fill="#000000" stroke="none">
<path d="M1579 2203 c-68 -72 -1260 -1706 -1266 -1734 -12 -62 92 -125 138
-83 12 11 302 401 646 867 429 583 626 858 630 880 4 26 -1 37 -25 60 -16 15
-44 30 -63 33 -28 5 -38 1 -60 -23z"/>
<path d="M1919 2163 c-68 -72 -1260 -1706 -1266 -1734 -12 -62 92 -125 138
-83 12 11 302 401 646 867 429 583 626 858 630 880 4 26 -1 37 -25 60 -16 15
-44 30 -63 33 -28 5 -38 1 -60 -23z"/>
<path d="M2299 2123 c-68 -72 -1260 -1706 -1266 -1734 -12 -62 92 -125 138
-83 12 11 302 401 646 867 429 583 626 858 630 880 4 26 -1 37 -25 60 -16 15
-44 30 -63 33 -28 5 -38 1 -60 -23z"/>
<path d="M2679 2103 c-68 -72 -1260 -1706 -1266 -1734 -12 -62 92 -125 138
-83 12 11 302 401 646 867 429 583 626 858 630 880 4 26 -1 37 -25 60 -16 15
-44 30 -63 33 -28 5 -38 1 -60 -23z"/>
</g>
</svg>
